<svg width="20" height="20" viewBox="0 0 20 20" fill="none" xmlns="http://www.w3.org/2000/svg">
<path d="M4.375 6.5625C4.375 5.98234 4.60547 5.42594 5.0157 5.0157C5.42594 4.60547 5.98234 4.375 6.5625 4.375C7.14266 4.375 7.69906 4.60547 8.1093 5.0157C8.51953 5.42594 8.75 5.98234 8.75 6.5625C8.75 7.14266 8.51953 7.69906 8.1093 8.1093C7.69906 8.51953 7.14266 8.75 6.5625 8.75C5.98234 8.75 5.42594 8.51953 5.0157 8.1093C4.60547 7.69906 4.375 7.14266 4.375 6.5625V6.5625ZM6.5625 3.125C5.65082 3.125 4.77648 3.48716 4.13182 4.13182C3.48716 4.77648 3.125 5.65082 3.125 6.5625C3.125 7.47418 3.48716 8.34852 4.13182 8.99318C4.77648 9.63784 5.65082 10 6.5625 10C7.47418 10 8.34852 9.63784 8.99318 8.99318C9.63784 8.34852 10 7.47418 10 6.5625C10 5.65082 9.63784 4.77648 8.99318 4.13182C8.34852 3.48716 7.47418 3.125 6.5625 3.125ZM13.125 7.5C13.125 7.16848 13.2567 6.85054 13.4911 6.61612C13.7255 6.3817 14.0435 6.25 14.375 6.25C14.7065 6.25 15.0245 6.3817 15.2589 6.61612C15.4933 6.85054 15.625 7.16848 15.625 7.5C15.625 7.83152 15.4933 8.14946 15.2589 8.38388C15.0245 8.6183 14.7065 8.75 14.375 8.75C14.0435 8.75 13.7255 8.6183 13.4911 8.38388C13.2567 8.14946 13.125 7.83152 13.125 7.5ZM14.375 5C13.712 5 13.0761 5.26339 12.6072 5.73223C12.1384 6.20107 11.875 6.83696 11.875 7.5C11.875 8.16304 12.1384 8.79893 12.6072 9.26777C13.0761 9.73661 13.712 10 14.375 10C15.038 10 15.6739 9.73661 16.1428 9.26777C16.6116 8.79893 16.875 8.16304 16.875 7.5C16.875 6.83696 16.6116 6.20107 16.1428 5.73223C15.6739 5.26339 15.038 5 14.375 5V5ZM1.25 13.125C1.25 12.6277 1.44754 12.1508 1.79917 11.7992C2.15081 11.4475 2.62772 11.25 3.125 11.25H10C10.4973 11.25 10.9742 11.4475 11.3258 11.7992C11.6775 12.1508 11.875 12.6277 11.875 13.125V13.2662C11.8738 13.3245 11.8696 13.3827 11.8625 13.4406C11.85 13.5487 11.8269 13.6956 11.7812 13.8694C11.6612 14.3277 11.4487 14.7567 11.1569 15.13C10.4256 16.0688 9.05 16.875 6.5625 16.875C4.075 16.875 2.7 16.0688 1.96812 15.13C1.67607 14.7568 1.46338 14.3278 1.34312 13.8694C1.29539 13.6855 1.26484 13.4976 1.25188 13.3081C1.25127 13.2942 1.25085 13.2802 1.25062 13.2662V13.2519L1.25 13.2469V13.125ZM2.5 13.2362V13.2438C2.50866 13.3488 2.52644 13.453 2.55312 13.555C2.60937 13.7725 2.72375 14.0663 2.95375 14.3619C3.39437 14.9269 4.3625 15.625 6.5625 15.625C8.7625 15.625 9.73125 14.9269 10.1712 14.3625C10.3581 14.1233 10.4942 13.8486 10.5712 13.555C10.5981 13.453 10.6161 13.3489 10.625 13.2438L10.6256 13.2362V13.125C10.6256 12.9592 10.5598 12.8003 10.4426 12.6831C10.3254 12.5658 10.1664 12.5 10.0006 12.5H3.125C2.95924 12.5 2.80027 12.5658 2.68306 12.6831C2.56585 12.8003 2.5 12.9592 2.5 13.125V13.2362ZM12.1731 15.3075C12.7544 15.505 13.4775 15.625 14.375 15.625C16.3756 15.625 17.5125 15.0294 18.1331 14.2969C18.435 13.9406 18.5894 13.5794 18.6675 13.3019C18.7096 13.1531 18.7366 13.0004 18.7481 12.8463L18.7487 12.8237L18.7494 12.81V12.7863C18.7495 12.5845 18.7098 12.3847 18.6326 12.1983C18.5554 12.0118 18.4423 11.8424 18.2996 11.6998C18.1569 11.5571 17.9875 11.4439 17.8011 11.3668C17.6147 11.2896 17.4149 11.2499 17.2131 11.25H12.095C12.4075 11.5994 12.6344 12.0269 12.7419 12.5H17.2131C17.3694 12.5 17.4956 12.6244 17.4994 12.7787C17.4932 12.8409 17.4815 12.9024 17.4644 12.9625C17.4256 13.1 17.3456 13.2925 17.1787 13.4894C16.8625 13.8638 16.1244 14.375 14.375 14.375C13.6469 14.375 13.0944 14.2862 12.6744 14.1562C12.5632 14.562 12.3944 14.9497 12.1731 15.3075V15.3075Z" fill="#4C576C"/>
</svg>
