<svg width="19" height="19" viewBox="0 0 19 19" fill="none" xmlns="http://www.w3.org/2000/svg">
<path d="M7.91667 2.375H3.16667C2.9567 2.375 2.75534 2.45841 2.60687 2.60687C2.45841 2.75534 2.375 2.9567 2.375 3.16667V7.91667C2.375 8.12663 2.45841 8.32799 2.60687 8.47646C2.75534 8.62493 2.9567 8.70833 3.16667 8.70833H7.91667C8.12663 8.70833 8.32799 8.62493 8.47646 8.47646C8.62493 8.32799 8.70833 8.12663 8.70833 7.91667V3.16667C8.70833 2.9567 8.62493 2.75534 8.47646 2.60687C8.32799 2.45841 8.12663 2.375 7.91667 2.375V2.375ZM7.125 7.125H3.95833V3.95833H7.125V7.125ZM15.8333 2.375H11.0833C10.8734 2.375 10.672 2.45841 10.5235 2.60687C10.3751 2.75534 10.2917 2.9567 10.2917 3.16667V7.91667C10.2917 8.12663 10.3751 8.32799 10.5235 8.47646C10.672 8.62493 10.8734 8.70833 11.0833 8.70833H15.8333C16.0433 8.70833 16.2447 8.62493 16.3931 8.47646C16.5416 8.32799 16.625 8.12663 16.625 7.91667V3.16667C16.625 2.9567 16.5416 2.75534 16.3931 2.60687C16.2447 2.45841 16.0433 2.375 15.8333 2.375V2.375ZM15.0417 7.125H11.875V3.95833H15.0417V7.125ZM7.91667 10.2917H3.16667C2.9567 10.2917 2.75534 10.3751 2.60687 10.5235C2.45841 10.672 2.375 10.8734 2.375 11.0833V15.8333C2.375 16.0433 2.45841 16.2447 2.60687 16.3931C2.75534 16.5416 2.9567 16.625 3.16667 16.625H7.91667C8.12663 16.625 8.32799 16.5416 8.47646 16.3931C8.62493 16.2447 8.70833 16.0433 8.70833 15.8333V11.0833C8.70833 10.8734 8.62493 10.672 8.47646 10.5235C8.32799 10.3751 8.12663 10.2917 7.91667 10.2917ZM7.125 15.0417H3.95833V11.875H7.125V15.0417ZM13.4583 10.2917C11.7119 10.2917 10.2917 11.7119 10.2917 13.4583C10.2917 15.2048 11.7119 16.625 13.4583 16.625C15.2048 16.625 16.625 15.2048 16.625 13.4583C16.625 11.7119 15.2048 10.2917 13.4583 10.2917ZM13.4583 15.0417C12.5851 15.0417 11.875 14.3315 11.875 13.4583C11.875 12.5851 12.5851 11.875 13.4583 11.875C14.3315 11.875 15.0417 12.5851 15.0417 13.4583C15.0417 14.3315 14.3315 15.0417 13.4583 15.0417Z" fill="#4C576C"/>
</svg>
