<svg width="61" height="49" viewBox="0 0 61 49" fill="none" xmlns="http://www.w3.org/2000/svg">
<path d="M5.45219 7.56889C5.40958 7.20904 5.23676 6.92969 4.93373 6.73082C4.6307 6.53196 4.25901 6.43253 3.81867 6.43253C3.4967 6.43253 3.21498 6.48461 2.9735 6.58878C2.73439 6.69294 2.54736 6.83617 2.41242 7.01847C2.27984 7.20076 2.21356 7.40791 2.21356 7.63991C2.21356 7.83404 2.25972 8.00095 2.35205 8.14062C2.44675 8.27794 2.56749 8.39276 2.71427 8.48509C2.86105 8.57505 3.01493 8.64962 3.17591 8.70881C3.3369 8.76562 3.48486 8.81179 3.61981 8.8473L4.35844 9.04616C4.54784 9.09588 4.75854 9.16454 4.99055 9.25213C5.22492 9.33973 5.44864 9.45928 5.66171 9.6108C5.87715 9.75994 6.0547 9.9517 6.19438 10.1861C6.33406 10.4205 6.4039 10.7081 6.4039 11.049C6.4039 11.442 6.30091 11.7971 6.09495 12.1143C5.89135 12.4316 5.59305 12.6837 5.20006 12.8707C4.80944 13.0578 4.33477 13.1513 3.77606 13.1513C3.25522 13.1513 2.80423 13.0672 2.42307 12.8991C2.04429 12.7311 1.74599 12.4967 1.52819 12.196C1.31275 11.8954 1.19083 11.5462 1.16242 11.1484H2.07151C2.09519 11.4231 2.18751 11.6503 2.3485 11.8303C2.51185 12.0078 2.71782 12.1404 2.9664 12.228C3.21734 12.3132 3.48723 12.3558 3.77606 12.3558C4.11223 12.3558 4.41408 12.3014 4.6816 12.1925C4.94912 12.0812 5.161 11.9273 5.31725 11.7308C5.4735 11.532 5.55162 11.3 5.55162 11.0348C5.55162 10.7933 5.48415 10.5968 5.34921 10.4453C5.21427 10.2938 5.03671 10.1707 4.81654 10.076C4.59637 9.9813 4.35844 9.89844 4.10276 9.82741L3.20787 9.57173C2.63969 9.40838 2.18988 9.17519 1.85844 8.87216C1.527 8.56913 1.36128 8.17259 1.36128 7.68253C1.36128 7.27533 1.47137 6.92022 1.69154 6.61719C1.91408 6.31179 2.21237 6.07505 2.58643 5.90696C2.96285 5.73651 3.38306 5.65128 3.84708 5.65128C4.31583 5.65128 4.7325 5.73532 5.09708 5.90341C5.46166 6.06913 5.75049 6.2964 5.96356 6.58523C6.17899 6.87405 6.29263 7.20194 6.30447 7.56889H5.45219ZM17.7541 8.02344H16.8735C16.8214 7.77012 16.7302 7.54759 16.6 7.35582C16.4722 7.16406 16.3159 7.00308 16.1313 6.87287C15.949 6.74029 15.7466 6.64086 15.524 6.57457C15.3015 6.50829 15.0695 6.47514 14.828 6.47514C14.3877 6.47514 13.9888 6.58641 13.6313 6.80895C13.2762 7.03149 12.9933 7.35938 12.7826 7.79261C12.5742 8.22585 12.4701 8.75734 12.4701 9.38707C12.4701 10.0168 12.5742 10.5483 12.7826 10.9815C12.9933 11.4148 13.2762 11.7427 13.6313 11.9652C13.9888 12.1877 14.3877 12.299 14.828 12.299C15.0695 12.299 15.3015 12.2659 15.524 12.1996C15.7466 12.1333 15.949 12.035 16.1313 11.9048C16.3159 11.7723 16.4722 11.6101 16.6 11.4183C16.7302 11.2242 16.8214 11.0017 16.8735 10.7507H17.7541C17.6879 11.1224 17.5671 11.455 17.3919 11.7486C17.2167 12.0421 16.9989 12.2919 16.7385 12.4979C16.4781 12.7015 16.1857 12.8565 15.8614 12.9631C15.5394 13.0696 15.195 13.1229 14.828 13.1229C14.2077 13.1229 13.6561 12.9714 13.1732 12.6683C12.6902 12.3653 12.3103 11.9344 12.0333 11.3757C11.7563 10.817 11.6178 10.1541 11.6178 9.38707C11.6178 8.62003 11.7563 7.95715 12.0333 7.39844C12.3103 6.83973 12.6902 6.40885 13.1732 6.10582C13.6561 5.80279 14.2077 5.65128 14.828 5.65128C15.195 5.65128 15.5394 5.70455 15.8614 5.81108C16.1857 5.91761 16.4781 6.07386 16.7385 6.27983C16.9989 6.48343 17.2167 6.73201 17.3919 7.02557C17.5671 7.31676 17.6879 7.64938 17.7541 8.02344ZM23.2273 13.0234V5.75071H25.6847C26.2528 5.75071 26.7192 5.84777 27.0838 6.0419C27.4484 6.23366 27.7183 6.49763 27.8935 6.83381C28.0686 7.16998 28.1562 7.55232 28.1562 7.98082C28.1562 8.40933 28.0686 8.7893 27.8935 9.12074C27.7183 9.45218 27.4496 9.71259 27.0873 9.90199C26.7251 10.089 26.2623 10.1825 25.6989 10.1825H23.7102V9.38707H25.6704C26.0587 9.38707 26.3712 9.33026 26.6079 9.21662C26.8471 9.10298 27.0199 8.942 27.1264 8.73366C27.2353 8.52296 27.2898 8.27202 27.2898 7.98082C27.2898 7.68963 27.2353 7.43513 27.1264 7.21733C27.0175 6.99953 26.8435 6.83144 26.6044 6.71307C26.3653 6.59233 26.0492 6.53196 25.6562 6.53196H24.1079V13.0234H23.2273ZM26.6506 9.75639L28.4403 13.0234H27.4176L25.6562 9.75639H26.6506ZM39.8101 9.38707C39.8101 10.1541 39.6716 10.817 39.3946 11.3757C39.1176 11.9344 38.7377 12.3653 38.2547 12.6683C37.7718 12.9714 37.2202 13.1229 36.5999 13.1229C35.9796 13.1229 35.428 12.9714 34.9451 12.6683C34.4621 12.3653 34.0821 11.9344 33.8051 11.3757C33.5282 10.817 33.3897 10.1541 33.3897 9.38707C33.3897 8.62003 33.5282 7.95715 33.8051 7.39844C34.0821 6.83973 34.4621 6.40885 34.9451 6.10582C35.428 5.80279 35.9796 5.65128 36.5999 5.65128C37.2202 5.65128 37.7718 5.80279 38.2547 6.10582C38.7377 6.40885 39.1176 6.83973 39.3946 7.39844C39.6716 7.95715 39.8101 8.62003 39.8101 9.38707ZM38.9578 9.38707C38.9578 8.75734 38.8525 8.22585 38.6418 7.79261C38.4335 7.35938 38.1505 7.03149 37.7931 6.80895C37.438 6.58641 37.0402 6.47514 36.5999 6.47514C36.1595 6.47514 35.7606 6.58641 35.4032 6.80895C35.048 7.03149 34.7651 7.35938 34.5544 7.79261C34.3461 8.22585 34.2419 8.75734 34.2419 9.38707C34.2419 10.0168 34.3461 10.5483 34.5544 10.9815C34.7651 11.4148 35.048 11.7427 35.4032 11.9652C35.7606 12.1877 36.1595 12.299 36.5999 12.299C37.0402 12.299 37.438 12.1877 37.7931 11.9652C38.1505 11.7427 38.4335 11.4148 38.6418 10.9815C38.8525 10.5483 38.9578 10.0168 38.9578 9.38707ZM45.3409 13.0234V5.75071H46.2216V12.2422H49.6023V13.0234H45.3409ZM55.0159 13.0234V5.75071H55.8966V12.2422H59.2773V13.0234H55.0159Z" fill="#222222"/>
<line x1="30.0942" y1="48.0488" x2="30.0942" y2="25.4608" stroke="#222222"/>
</svg>
