<svg width="267" height="159" viewBox="0 0 267 159" fill="none" xmlns="http://www.w3.org/2000/svg">
<g clip-path="url(#clip0_644_1543)">
<path d="M142.856 111.867C158.419 112.512 173.62 113.235 188.948 116.266C195.449 117.556 202.04 118.436 208.6 119.433C210.258 119.687 211.974 119.599 212.631 117.605C213.21 115.836 212.15 115.23 210.699 114.359C206.374 111.769 204.344 104.926 206.139 100.096C206.57 98.9526 207.267 98.0337 208.649 98.2879C209.885 98.5225 209.865 99.6174 209.934 100.595C210.14 103.508 209.189 106.754 212.847 109.54C212.847 103.43 212.807 97.9946 212.866 92.5592C212.886 90.5552 212.209 87.6126 215.22 87.5637C218.329 87.5051 218.839 90.2326 218.77 92.8916C218.711 94.9152 218.76 96.9486 218.76 99.5783C221.536 96.929 220.457 94.182 220.692 91.7185C220.839 90.1641 221.065 88.6489 222.938 88.4924C224.811 88.336 224.801 90.1348 225.086 91.2395C226.233 95.7559 225.341 99.9791 222.3 103.489C219.604 106.588 216.789 117.067 219.045 120.02C221.379 123.08 225.527 124.135 229.185 125.289C241.002 129.014 252.339 133.638 262.322 141.184C265.578 143.648 268.079 146.571 266.519 150.608C265.048 154.431 262.4 156.787 257.321 156.757C204.256 156.533 151.191 156.327 98.1366 156.757C77.9836 156.924 57.8405 159.25 37.6581 158.468C27.41 158.067 17.1815 157.471 6.92359 157.569C0.902218 157.628 -1.67697 153.248 1.167 147.861C4.00117 142.485 8.53191 138.799 13.8668 136.169C20.3589 132.963 26.4195 128.896 33.2941 126.452C36.04 125.475 37.1776 124.047 34.314 121.779C32.7547 120.548 32.3428 118.866 32.5193 116.979C32.6762 115.278 31.8525 112.6 34.0002 112.346C36.7951 112.013 34.5101 115.337 36.4322 116.735C36.4322 114.438 36.3538 112.463 36.4519 110.488C36.5499 108.641 35.6379 105.962 38.0406 105.405C39.894 104.965 42.3654 105.571 44.0914 106.549C46.0331 107.643 45.4741 110.078 44.9838 111.925C44.5425 113.587 44.1502 115.298 42.5909 116.588C40.3452 118.446 40.8257 121.379 41.8064 123.324C43.0028 125.69 45.2289 123.735 46.9353 123.08C59.7626 118.123 73.4725 117.361 86.7803 114.702C92.3212 113.597 136.246 112.492 141.875 111.857H142.856V111.867Z" fill="#FAFAFA"/>
</g>
<rect x="58.4396" y="27.9214" width="99.1907" height="103.939" rx="5.5" fill="#F4F4F4" stroke="#F1F1F1"/>
<rect x="57.9396" y="27.4214" width="100.191" height="46.5341" rx="6" fill="#E6E6E6"/>
<rect x="63.1627" y="63.5091" width="89.7442" height="8.07223" rx="2" fill="white"/>
<rect x="63.1627" y="79.1787" width="89.7442" height="29.4399" rx="2" fill="white"/>
<rect x="63.1627" y="114.792" width="89.7442" height="14.2451" rx="2" fill="white"/>
<g clip-path="url(#clip1_644_1543)">
<path d="M104.948 47.3646L107.085 44.5156L108.747 46.6524L109.934 45.2279L111.596 47.3646M112.071 42.1414H108.272L107.323 41.1917H104.474C104.222 41.1917 103.98 41.2918 103.802 41.4699C103.624 41.648 103.524 41.8895 103.524 42.1414V47.8395C103.524 48.0913 103.624 48.3329 103.802 48.511C103.98 48.6891 104.222 48.7891 104.474 48.7891H112.071C112.323 48.7891 112.564 48.6891 112.743 48.511C112.921 48.3329 113.021 48.0913 113.021 47.8395V43.0911C113.021 42.8392 112.921 42.5977 112.743 42.4196C112.564 42.2415 112.323 42.1414 112.071 42.1414Z" fill="#D9D9D9"/>
</g>
<rect x="108.772" y="0.855713" width="99.1907" height="103.939" rx="5.5" fill="#F4F4F4" stroke="#F1F1F1"/>
<rect x="108.272" y="0.355713" width="100.191" height="46.5341" rx="6" fill="#E6E6E6"/>
<rect x="113.495" y="36.4434" width="89.7442" height="8.07223" rx="2" fill="white"/>
<rect x="113.495" y="52.113" width="89.7442" height="29.4399" rx="2" fill="white"/>
<rect x="113.495" y="87.7258" width="89.7442" height="14.2451" rx="2" fill="white"/>
<path d="M155.281 20.2989L157.418 17.4499L159.08 19.5866L160.267 18.1621L161.929 20.2989M162.404 15.0757H158.605L157.655 14.126H154.806C154.554 14.126 154.313 14.2261 154.135 14.4042C153.957 14.5823 153.857 14.8238 153.857 15.0757V20.7737C153.857 21.0256 153.957 21.2672 154.135 21.4452C154.313 21.6233 154.554 21.7234 154.806 21.7234H162.404C162.656 21.7234 162.897 21.6233 163.075 21.4452C163.253 21.2672 163.353 21.0256 163.353 20.7737V16.0254C163.353 15.7735 163.253 15.5319 163.075 15.3538C162.897 15.1757 162.656 15.0757 162.404 15.0757Z" fill="#D9D9D9"/>
<defs>
<clipPath id="clip0_644_1543">
<rect width="267" height="71.0805" fill="white" transform="translate(0 87.5637)"/>
</clipPath>
<clipPath id="clip1_644_1543">
<rect width="11.3961" height="11.3961" fill="white" transform="translate(102.574 39.2924)"/>
</clipPath>
</defs>
</svg>
