<svg width="18" height="18" viewBox="0 0 18 18" fill="none" xmlns="http://www.w3.org/2000/svg">
<path d="M13.9722 10.843L13.9722 10.8429L13.968 10.8471C13.6206 11.2016 13.4673 11.7056 13.5441 12.1938L13.5441 12.1938L13.5453 12.2006L14.3452 16.861C14.3452 16.8611 14.3452 16.8612 14.3452 16.8613C14.3818 17.0762 14.2933 17.2834 14.1391 17.3954L14.139 17.3953L14.1282 17.4036C13.9794 17.5181 13.7868 17.531 13.626 17.4402L13.626 17.4402L13.6209 17.4374L9.63914 15.2512C9.63841 15.2508 9.63769 15.2504 9.63696 15.25C9.4272 15.1329 9.19516 15.0706 8.95975 15.0635L8.95224 15.0633H8.94472H8.70085H8.66189L8.62341 15.0693C8.4822 15.0914 8.34235 15.1388 8.21283 15.2127L4.2344 17.4069C4.13595 17.4581 4.028 17.4757 3.92312 17.4596C3.67795 17.4066 3.47801 17.1434 3.52517 16.8274L4.32526 12.1713L4.32532 12.1714L4.3265 12.1638C4.40303 11.6736 4.25012 11.1695 3.90525 10.8121L3.90526 10.8121L3.90252 10.8093L0.653213 7.49388C0.515205 7.35293 0.46178 7.13257 0.528666 6.93001L0.529893 6.92624C0.596328 6.71957 0.758165 6.58645 0.933061 6.55646L5.39218 5.87548C5.90879 5.81509 6.34802 5.48436 6.56983 5.01735L6.56985 5.01736L6.57186 5.01304L8.53958 0.766155C8.5606 0.724549 8.5848 0.689147 8.61039 0.660289L8.66665 0.61422L8.70064 0.586393L8.72925 0.553067C8.73081 0.551254 8.73243 0.549484 8.73413 0.54775L8.77304 0.532719L8.78246 0.529082L8.79172 0.525067L8.84955 0.5H9.09251C9.244 0.524006 9.38607 0.623808 9.46611 0.785371L11.46 5.01359C11.4602 5.01404 11.4604 5.01449 11.4606 5.01495C11.6718 5.46814 12.0875 5.79383 12.5807 5.87337L12.5807 5.87338L12.5849 5.87401L17.0573 6.55702L17.0584 6.55719C17.2376 6.58415 17.405 6.71749 17.4754 6.92565C17.5373 7.13057 17.4793 7.34973 17.3393 7.48796L17.3378 7.4895L13.9722 10.843Z" fill="#ECB22E" stroke="white"/>
</svg>
