<svg width="139" height="21" viewBox="0 0 139 21" fill="none" xmlns="http://www.w3.org/2000/svg">
<path d="M10.4402 21C4.675 21 0 16.3016 0 10.4902C0 4.67871 4.675 0 10.4402 0H22.5696C28.3348 0 33 4.6984 33 10.4902C33 16.2819 28.3348 21 22.5696 21H10.4402ZM22.3045 17.2866C26.0268 17.2866 29.0616 14.243 29.0616 10.4803C29.0616 6.71764 26.0366 3.68387 22.3045 3.68387H10.7054C6.97321 3.68387 3.94821 6.72749 3.94821 10.4803C3.94821 14.2331 6.97321 17.2866 10.7054 17.2866H22.2946H22.3045Z" fill="#C74634"/>
<path d="M38.6123 20.016L43.0603 8.384H45.0283L49.5083 20.016H47.2843L46.3883 17.392H41.6523L40.7563 20.016H38.6123ZM42.2283 15.696H45.8123L44.0043 10.432L42.2283 15.696Z" fill="#222222"/>
<path d="M50.7606 20.016V11.6H52.0566L52.3446 12.912C52.6752 12.4427 53.0806 12.08 53.5606 11.824C54.0406 11.5573 54.5579 11.424 55.1126 11.424C56.3072 11.424 57.1286 11.9147 57.5766 12.896C57.8966 12.4373 58.3019 12.08 58.7926 11.824C59.2832 11.5573 59.8166 11.424 60.3926 11.424C61.3099 11.424 62.0086 11.7173 62.4886 12.304C62.9792 12.88 63.2246 13.7227 63.2246 14.832V20.016H61.2726V14.896C61.2726 13.6587 60.7926 13.04 59.8326 13.04C59.3846 13.04 58.9953 13.1733 58.6646 13.44C58.3446 13.696 58.1099 14.0587 57.9606 14.528V20.016H56.0406V14.896C56.0406 13.6587 55.5552 13.04 54.5846 13.04C54.1472 13.04 53.7632 13.1787 53.4326 13.456C53.1019 13.7333 52.8619 14.1067 52.7126 14.576V20.016H50.7606Z" fill="#222222"/>
<path d="M65.3532 19.616V8H67.3052V12.352C67.9559 11.7333 68.7239 11.424 69.6092 11.424C70.7185 11.424 71.5665 11.792 72.1532 12.528C72.7505 13.264 73.0492 14.32 73.0492 15.696C73.0492 17.0933 72.6492 18.1973 71.8492 19.008C71.0599 19.808 69.9665 20.208 68.5692 20.208C68.0359 20.208 67.4652 20.1493 66.8572 20.032C66.2599 19.9253 65.7585 19.7867 65.3532 19.616ZM69.1612 12.88C68.4465 12.88 67.8225 13.2 67.2892 13.84V18.512C67.6625 18.6293 68.0785 18.688 68.5372 18.688C70.2332 18.688 71.0812 17.6853 71.0812 15.68C71.0812 14.7733 70.9159 14.08 70.5852 13.6C70.2545 13.12 69.7799 12.88 69.1612 12.88Z" fill="#222222"/>
<path d="M80.0715 20.016L79.7995 18.768C79.4901 19.2267 79.1008 19.584 78.6315 19.84C78.1621 20.0853 77.6448 20.208 77.0795 20.208C76.2155 20.208 75.5275 19.968 75.0155 19.488C74.5141 19.008 74.2635 18.3573 74.2635 17.536C74.2635 16.6613 74.5835 15.9733 75.2235 15.472C75.8635 14.9707 76.7381 14.72 77.8475 14.72H79.4315V14.32C79.4315 13.7867 79.3195 13.424 79.0955 13.232C78.8715 13.04 78.4768 12.944 77.9115 12.944C77.0688 12.944 76.1088 13.1413 75.0315 13.536V12.016C75.4581 11.8347 75.9435 11.6907 76.4875 11.584C77.0315 11.4773 77.5648 11.424 78.0875 11.424C80.2741 11.424 81.3675 12.384 81.3675 14.304V20.016H80.0715ZM77.4795 18.736C77.8741 18.736 78.2475 18.6347 78.5995 18.432C78.9515 18.2187 79.2395 17.9253 79.4635 17.552V15.968H78.0715C76.7808 15.968 76.1355 16.4373 76.1355 17.376C76.1355 17.8027 76.2528 18.1387 76.4875 18.384C76.7221 18.6187 77.0528 18.736 77.4795 18.736Z" fill="#222222"/>
<path d="M83.1578 19.632V18.048C83.6912 18.2613 84.1712 18.416 84.5978 18.512C85.0245 18.5973 85.4725 18.64 85.9418 18.64C87.0832 18.64 87.6538 18.3147 87.6538 17.664C87.6538 17.4187 87.5578 17.2213 87.3658 17.072C87.1845 16.912 86.8645 16.768 86.4058 16.64L85.1578 16.304C84.4005 16.0907 83.8458 15.7973 83.4938 15.424C83.1418 15.04 82.9658 14.5493 82.9658 13.952C82.9658 13.1627 83.2698 12.544 83.8778 12.096C84.4858 11.648 85.3125 11.424 86.3578 11.424C86.8592 11.424 87.3445 11.4667 87.8138 11.552C88.2832 11.6373 88.6832 11.7547 89.0138 11.904V13.456C88.1498 13.1253 87.2912 12.96 86.4378 12.96C85.4032 12.96 84.8858 13.248 84.8858 13.824C84.8858 14.048 84.9765 14.2347 85.1578 14.384C85.3392 14.5227 85.6432 14.6507 86.0698 14.768L87.3178 15.12C88.1392 15.3547 88.7205 15.6587 89.0618 16.032C89.4032 16.3947 89.5738 16.9067 89.5738 17.568C89.5738 18.4107 89.2645 19.0613 88.6458 19.52C88.0272 19.9787 87.1472 20.208 86.0058 20.208C85.4832 20.208 84.9605 20.1547 84.4378 20.048C83.9152 19.9413 83.4885 19.8027 83.1578 19.632Z" fill="#222222"/>
<path d="M90.7516 19.632V18.048C91.2849 18.2613 91.7649 18.416 92.1916 18.512C92.6182 18.5973 93.0662 18.64 93.5356 18.64C94.6769 18.64 95.2476 18.3147 95.2476 17.664C95.2476 17.4187 95.1516 17.2213 94.9596 17.072C94.7782 16.912 94.4582 16.768 93.9996 16.64L92.7516 16.304C91.9942 16.0907 91.4396 15.7973 91.0876 15.424C90.7356 15.04 90.5596 14.5493 90.5596 13.952C90.5596 13.1627 90.8636 12.544 91.4716 12.096C92.0796 11.648 92.9062 11.424 93.9516 11.424C94.4529 11.424 94.9382 11.4667 95.4076 11.552C95.8769 11.6373 96.2769 11.7547 96.6076 11.904V13.456C95.7436 13.1253 94.8849 12.96 94.0316 12.96C92.9969 12.96 92.4796 13.248 92.4796 13.824C92.4796 14.048 92.5702 14.2347 92.7516 14.384C92.9329 14.5227 93.2369 14.6507 93.6636 14.768L94.9116 15.12C95.7329 15.3547 96.3142 15.6587 96.6556 16.032C96.9969 16.3947 97.1676 16.9067 97.1676 17.568C97.1676 18.4107 96.8582 19.0613 96.2396 19.52C95.6209 19.9787 94.7409 20.208 93.5996 20.208C93.0769 20.208 92.5542 20.1547 92.0316 20.048C91.5089 19.9413 91.0822 19.8027 90.7516 19.632Z" fill="#222222"/>
<path d="M104.15 20.016L103.878 18.768C103.568 19.2267 103.179 19.584 102.71 19.84C102.24 20.0853 101.723 20.208 101.158 20.208C100.294 20.208 99.6056 19.968 99.0936 19.488C98.5922 19.008 98.3416 18.3573 98.3416 17.536C98.3416 16.6613 98.6616 15.9733 99.3016 15.472C99.9416 14.9707 100.816 14.72 101.926 14.72H103.51V14.32C103.51 13.7867 103.398 13.424 103.174 13.232C102.95 13.04 102.555 12.944 101.99 12.944C101.147 12.944 100.187 13.1413 99.1096 13.536V12.016C99.5362 11.8347 100.022 11.6907 100.566 11.584C101.11 11.4773 101.643 11.424 102.166 11.424C104.352 11.424 105.446 12.384 105.446 14.304V20.016H104.15ZM101.558 18.736C101.952 18.736 102.326 18.6347 102.678 18.432C103.03 18.2187 103.318 17.9253 103.542 17.552V15.968H102.15C100.859 15.968 100.214 16.4373 100.214 17.376C100.214 17.8027 100.331 18.1387 100.566 18.384C100.8 18.6187 101.131 18.736 101.558 18.736Z" fill="#222222"/>
<path d="M113.716 20.016L113.428 18.72C113.097 19.1893 112.692 19.552 112.212 19.808C111.743 20.064 111.236 20.192 110.692 20.192C109.583 20.192 108.713 19.808 108.084 19.04C107.455 18.2613 107.14 17.1787 107.14 15.792C107.14 14.4053 107.449 13.3333 108.068 12.576C108.697 11.808 109.572 11.424 110.692 11.424C111.609 11.424 112.399 11.7387 113.06 12.368V8H115.012V20.016H113.716ZM109.108 15.808C109.108 16.7147 109.273 17.4133 109.604 17.904C109.945 18.384 110.431 18.624 111.06 18.624C111.465 18.624 111.844 18.5173 112.196 18.304C112.559 18.08 112.852 17.7867 113.076 17.424V13.92C112.543 13.2907 111.871 12.976 111.06 12.976C110.431 12.976 109.945 13.2213 109.604 13.712C109.273 14.192 109.108 14.8907 109.108 15.808Z" fill="#222222"/>
<path d="M120.861 20.192C119.57 20.192 118.562 19.808 117.837 19.04C117.122 18.272 116.765 17.1947 116.765 15.808C116.765 14.4213 117.122 13.344 117.837 12.576C118.562 11.808 119.57 11.424 120.861 11.424C122.162 11.424 123.17 11.808 123.885 12.576C124.6 13.344 124.957 14.4213 124.957 15.808C124.957 17.1947 124.6 18.272 123.885 19.04C123.17 19.808 122.162 20.192 120.861 20.192ZM120.861 18.672C122.28 18.672 122.989 17.7173 122.989 15.808C122.989 13.8987 122.28 12.944 120.861 12.944C119.442 12.944 118.733 13.8987 118.733 15.808C118.733 17.7173 119.442 18.672 120.861 18.672Z" fill="#222222"/>
<path d="M126.714 20.016V11.6H128.01L128.314 12.992C128.58 12.544 128.916 12.1973 129.322 11.952C129.727 11.696 130.202 11.568 130.746 11.568C130.948 11.568 131.135 11.584 131.306 11.616V13.36H130.842C130.255 13.36 129.775 13.5253 129.402 13.856C129.028 14.176 128.783 14.6027 128.666 15.136V20.016H126.714Z" fill="#222222"/>
<path d="M132.564 19.632V18.048C133.097 18.2613 133.577 18.416 134.004 18.512C134.431 18.5973 134.879 18.64 135.348 18.64C136.489 18.64 137.06 18.3147 137.06 17.664C137.06 17.4187 136.964 17.2213 136.772 17.072C136.591 16.912 136.271 16.768 135.812 16.64L134.564 16.304C133.807 16.0907 133.252 15.7973 132.9 15.424C132.548 15.04 132.372 14.5493 132.372 13.952C132.372 13.1627 132.676 12.544 133.284 12.096C133.892 11.648 134.719 11.424 135.764 11.424C136.265 11.424 136.751 11.4667 137.22 11.552C137.689 11.6373 138.089 11.7547 138.42 11.904V13.456C137.556 13.1253 136.697 12.96 135.844 12.96C134.809 12.96 134.292 13.248 134.292 13.824C134.292 14.048 134.383 14.2347 134.564 14.384C134.745 14.5227 135.049 14.6507 135.476 14.768L136.724 15.12C137.545 15.3547 138.127 15.6587 138.468 16.032C138.809 16.3947 138.98 16.9067 138.98 17.568C138.98 18.4107 138.671 19.0613 138.052 19.52C137.433 19.9787 136.553 20.208 135.412 20.208C134.889 20.208 134.367 20.1547 133.844 20.048C133.321 19.9413 132.895 19.8027 132.564 19.632Z" fill="#222222"/>
<path d="M55.9982 6.9V2.98182H55V2.42727L55.9982 2.10909V1.71818C55.9982 0.572727 56.6565 0 57.973 0C58.1756 0 58.36 0.0151518 58.5264 0.0454552V0.9C58.4758 0.89394 58.4215 0.89091 58.3636 0.89091C58.313 0.884849 58.2588 0.881818 58.2009 0.881818C57.8826 0.881818 57.6548 0.945455 57.5173 1.07273C57.3871 1.2 57.322 1.40909 57.322 1.7V2.11818H58.5698V2.98182H57.322V6.9H55.9982Z" fill="#C74634"/>
<path d="M61.9168 7C61.0416 7 60.358 6.78182 59.8661 6.34546C59.3814 5.90909 59.1391 5.29697 59.1391 4.50909C59.1391 3.72121 59.3814 3.10909 59.8661 2.67273C60.358 2.23636 61.0416 2.01818 61.9168 2.01818C62.7993 2.01818 63.4829 2.23636 63.9676 2.67273C64.4522 3.10909 64.6946 3.72121 64.6946 4.50909C64.6946 5.29697 64.4522 5.90909 63.9676 6.34546C63.4829 6.78182 62.7993 7 61.9168 7ZM61.9168 6.13636C62.8789 6.13636 63.36 5.59394 63.36 4.50909C63.36 3.42424 62.8789 2.88182 61.9168 2.88182C60.9548 2.88182 60.4737 3.42424 60.4737 4.50909C60.4737 5.59394 60.9548 6.13636 61.9168 6.13636Z" fill="#C74634"/>
<path d="M65.8859 6.9V2.11818H66.7648L66.971 2.90909C67.1518 2.65455 67.3797 2.45758 67.6545 2.31818C67.9294 2.17273 68.2513 2.1 68.6202 2.1C68.7577 2.1 68.8843 2.10909 69 2.12727V3.11818H68.6853C68.2875 3.11818 67.962 3.21212 67.7088 3.4C67.4556 3.58182 67.2892 3.82424 67.2097 4.12727V6.9H65.8859Z" fill="#C74634"/>
<path d="M43.8181 5.61649V6.5877C43.5737 6.72208 43.3003 6.82286 42.9977 6.89005C42.6951 6.96335 42.3721 7 42.0288 7C41.0512 7 40.3005 6.69764 39.7768 6.09293C39.2589 5.48822 39 4.61475 39 3.47251C39 2.77007 39.1222 2.16841 39.3666 1.66754C39.6168 1.16667 39.9718 0.78185 40.4315 0.513089C40.897 0.23822 41.4469 0.100786 42.0812 0.100786C42.3605 0.100786 42.6369 0.134381 42.9104 0.201571C43.1839 0.268761 43.4195 0.363438 43.6174 0.485602V1.44764C43.3148 1.31937 43.05 1.22775 42.8231 1.17277C42.5961 1.1178 42.3721 1.09031 42.151 1.09031C41.4993 1.09031 40.9959 1.30105 40.641 1.72251C40.286 2.13787 40.1085 2.7212 40.1085 3.47251C40.1085 4.2849 40.2831 4.91099 40.6322 5.35079C40.9872 5.78447 41.4934 6.00131 42.151 6.00131C42.407 6.00131 42.666 5.97077 42.9278 5.90969C43.1955 5.8486 43.4923 5.75087 43.8181 5.61649Z" fill="#C74634"/>
<path d="M47.7575 6.88089L47.6091 6.16623C47.4404 6.42888 47.228 6.63351 46.9719 6.7801C46.7159 6.92059 46.4337 6.99084 46.1253 6.99084C45.6539 6.99084 45.2786 6.8534 44.9993 6.57853C44.7258 6.30366 44.589 5.93106 44.589 5.46073C44.589 4.95986 44.7636 4.56588 45.1128 4.2788C45.4619 3.99171 45.9391 3.84817 46.5442 3.84817H47.4084V3.61911C47.4084 3.3137 47.3473 3.10602 47.2251 2.99607C47.1029 2.88613 46.8876 2.83115 46.5792 2.83115C46.1194 2.83115 45.5957 2.94415 45.008 3.17016V2.29974C45.2408 2.1959 45.5055 2.11344 45.8023 2.05236C46.0991 1.99127 46.39 1.96073 46.6752 1.96073C47.8681 1.96073 48.4645 2.51047 48.4645 3.60995V6.88089H47.7575ZM46.3435 6.14791C46.5588 6.14791 46.7624 6.08988 46.9545 5.97382C47.1465 5.85166 47.3036 5.68368 47.4258 5.46989V4.56283H46.6664C45.9623 4.56283 45.6103 4.83159 45.6103 5.36911C45.6103 5.61344 45.6743 5.80585 45.8023 5.94634C45.9303 6.08072 46.1107 6.14791 46.3435 6.14791Z" fill="#C74634"/>
<path d="M49.6507 6.88089V0.815445L49.1881 0.458115V0H50.7156V6.88089H49.6507Z" fill="#C74634"/>
<path d="M51.9351 6.88089V0.815445L51.4725 0.458115V0H53V6.88089H51.9351Z" fill="#C74634"/>
</svg>
