<svg width="257" height="77" viewBox="0 0 257 77" fill="none" xmlns="http://www.w3.org/2000/svg">
<path d="M134.211 54.042C132.863 53.9589 131.514 54.1755 130.26 54.6762C129.006 55.1769 127.879 55.9493 126.96 56.9377C125.306 59.4047 124.421 62.3072 124.418 65.2774C124.416 68.2476 125.295 71.1517 126.945 73.6216C128.908 75.4806 131.509 76.5166 134.212 76.5166C136.916 76.5166 139.517 75.4806 141.48 73.6216C143.127 71.1511 144.006 68.2487 144.006 65.2797C144.006 62.3108 143.127 59.4082 141.48 56.9377C140.559 55.9466 139.429 55.1726 138.172 54.6718C136.915 54.1709 135.563 53.9558 134.212 54.042H134.211ZM140.078 72.4671C139.313 73.2475 138.4 73.8674 137.393 74.2906C136.385 74.7138 135.303 74.9318 134.211 74.9318C133.118 74.9318 132.036 74.7138 131.029 74.2906C130.021 73.8674 129.108 73.2475 128.343 72.4671C127.036 70.2959 126.345 67.8094 126.345 65.275C126.345 62.7405 127.036 60.254 128.343 58.0828C129.108 57.3024 130.021 56.6825 131.029 56.2593C132.036 55.8361 133.118 55.6182 134.211 55.6182C135.303 55.6182 136.385 55.8361 137.393 56.2593C138.4 56.6825 139.313 57.3024 140.078 58.0828C141.385 60.254 142.076 62.7405 142.076 65.275C142.076 67.8094 141.385 70.2959 140.078 72.4671V72.4671Z" fill="#3B4548"/>
<path d="M158.397 19.9754H146.561V11.3353H157.197V9.79658H146.561V1.54449H158.087V0.00195312H144.713V21.5065H158.397V19.9697V19.9754Z" fill="#3B4548"/>
<path d="M201.594 2.99432L214.723 21.5103H216.506V0.00195312H214.691V18.5218L201.564 0.00195312H199.779V21.5065H201.594V2.99051V2.99432Z" fill="#3B4548"/>
<path d="M134.786 49.2358C136.096 49.2372 137.404 49.1136 138.691 48.8667C139.866 48.6492 141.011 48.2868 142.097 47.7879V37.4936H134.228V39.6248L138.471 40.7188V45.6587C137.287 45.8932 136.082 46.0124 134.875 46.0145C129.954 46.0145 127.494 43.2928 127.494 37.8495C127.426 36.8109 127.573 35.7695 127.925 34.7899C128.276 33.8103 128.825 32.9133 129.538 32.1544C130.329 31.4525 131.251 30.9145 132.251 30.5718C133.252 30.229 134.31 30.0883 135.365 30.1577C136.21 30.1572 137.054 30.2306 137.886 30.3772C138.834 30.5534 139.769 30.7949 140.684 31.1002V27.9659C139.86 27.6155 138.999 27.3615 138.117 27.2089C137.158 27.0398 136.186 26.9562 135.212 26.959C133.053 26.8985 130.91 27.3445 128.955 28.2612C127.285 29.0755 125.9 30.3742 124.98 31.9879C123.863 34.2805 123.408 36.8393 123.666 39.3764C123.924 41.9135 124.884 44.3284 126.439 46.3495C127.563 47.3702 128.882 48.1521 130.317 48.6479C131.752 49.1437 133.272 49.3431 134.786 49.2339V49.2358Z" fill="#3B4548"/>
<path d="M195.69 19.9754H183.854V11.3353H194.492V9.79658H183.854V1.54449H195.384V0.00195312H182.008V21.5065H195.69V19.9697V19.9754Z" fill="#3B4548"/>
<path d="M163.049 48.8521L157.146 40.0341C158.577 39.7227 159.867 38.954 160.822 37.8443C161.697 36.7247 162.149 35.3317 162.097 33.9113C162.155 32.9938 161.999 32.0755 161.642 31.2285C161.285 30.3815 160.736 29.629 160.038 29.0301C158.294 27.7926 156.175 27.1967 154.042 27.3437H145.957V48.8483H149.768V40.0019L153.554 40.742L158.781 48.8483H163.049V48.8521ZM152.626 37.5812H149.766V30.3323H152.626C153.754 30.3009 154.88 30.4148 155.978 30.6711C156.682 30.8208 157.307 31.2251 157.731 31.8066C158.11 32.4614 158.292 33.2122 158.253 33.9681C158.294 34.7091 158.112 35.4452 157.731 36.0822C157.301 36.6578 156.679 37.0606 155.978 37.2178C154.882 37.4855 153.754 37.6046 152.626 37.5718V37.5812Z" fill="#3B4548"/>
<path d="M170.508 21.5103L178.995 0.00576528H177.027L169.587 19.383L162.145 0.00195312H160.146L168.601 21.5065L170.508 21.5103Z" fill="#3B4548"/>
<path d="M127.74 11.8364L133.028 12.3399L139.361 21.5099H141.513L134.902 12.0144C138.632 11.3835 140.497 9.41128 140.497 6.09784C140.497 2.03615 137.997 0.00467975 132.998 0.00341797H125.895V21.508H127.738V11.8364H127.74ZM127.74 1.54214H131.336C132.812 1.50322 134.288 1.63665 135.733 1.93964C136.634 2.1018 137.44 2.59871 137.991 3.33073C138.477 4.16782 138.707 5.12938 138.651 6.09593C138.703 6.75254 138.587 7.41155 138.316 8.01154C138.044 8.61152 137.625 9.13301 137.097 9.52739C135.628 10.3654 133.943 10.7462 132.256 10.6213H127.738V1.53648L127.74 1.54214Z" fill="#3B4548"/>
<path d="M182.661 46.3379C184.558 44.0215 185.505 41.0715 185.311 38.0839C185.507 35.1027 184.555 32.1595 182.65 29.8583C180.579 27.9917 177.891 26.9585 175.103 26.9585C172.315 26.9585 169.626 27.9917 167.556 29.8583C165.653 32.161 164.701 35.1031 164.895 38.0839C164.704 41.0711 165.651 44.0199 167.544 46.3379C169.621 48.205 172.316 49.2379 175.109 49.2379C177.901 49.2379 180.596 48.205 182.673 46.3379H182.661ZM175.091 46.0709C170.888 46.0709 168.787 43.408 168.788 38.082C168.639 35.9765 169.203 33.8821 170.387 32.1352C170.995 31.499 171.725 30.9926 172.533 30.6466C173.342 30.3006 174.212 30.1222 175.092 30.1222C175.971 30.1222 176.841 30.3006 177.65 30.6466C178.459 30.9926 179.189 31.499 179.796 32.1352C180.98 33.8821 181.544 35.9765 181.395 38.082C181.395 43.4067 179.294 46.0697 175.091 46.0709V46.0709Z" fill="#3B4548"/>
<path d="M238.306 0H236.462V12.0696C236.621 14.2386 236.064 16.3998 234.878 18.2227C233.56 19.5304 231.778 20.2641 229.921 20.2641C228.064 20.2641 226.283 19.5304 224.964 18.2227C223.768 16.4039 223.206 14.2408 223.365 12.0696V0H221.522V12.0394C221.309 14.6806 222.063 17.3091 223.643 19.4359C225.367 20.9798 227.6 21.8335 229.915 21.8335C232.229 21.8335 234.462 20.9798 236.186 19.4359C237.767 17.3091 238.521 14.6806 238.308 12.0394V0H238.306Z" fill="#3B4548"/>
<path d="M242.941 65.8668H253.729V64.3073H242.941V55.9341H254.638V54.3745H241.069V76.1914H254.958V74.6299H242.949V65.8668H242.941Z" fill="#3B4548"/>
<path d="M154.672 76.1897H156.544V66.2816H166.869V64.7201H156.544V55.9268H167.959V54.3672H154.672V76.1841V76.1897Z" fill="#3B4548"/>
<path d="M251.377 27.4658V36.3065H240.922V27.3428H237.08V48.8473H240.922V39.4408H251.377V48.8473H255.219V31.3022L251.377 27.462V27.4658Z" fill="#3B4548"/>
<path d="M216.202 30.4789H223.027V48.8493H226.869V30.4789H233.694V27.3428H216.2V30.4771L216.202 30.4789Z" fill="#3B4548"/>
<path d="M245.161 19.9754V11.3353H255.8V9.79658H245.161V1.54449H256.691V0.00195312H243.318V21.5065H257V19.9697L245.161 19.9754Z" fill="#3B4548"/>
<path d="M178.222 76.1897H180.093V66.2816H190.418V64.7201H180.093V55.9268H191.504V54.3672H178.218V76.1841L178.222 76.1897Z" fill="#3B4548"/>
<path d="M201.768 54.3726H203.639V76.1894H201.768V54.3726Z" fill="#3B4548"/>
<path d="M206.856 43.1712L202.313 28.5294H199.022L194.625 43.0822L190.936 27.3447H187.062L192.229 48.8493H195.918L200.621 33.4977L205.449 48.8493H209.138L214.294 27.3428H210.543L206.854 43.1693L206.856 43.1712Z" fill="#3B4548"/>
<path d="M224.819 74.9292C223.634 74.9997 222.449 74.806 221.348 74.3622C220.248 73.9183 219.26 73.2353 218.456 72.3627C216.84 70.2943 216.041 67.7045 216.209 65.0854C216.027 62.5527 216.842 60.0493 218.48 58.109C219.297 57.2638 220.288 56.605 221.383 56.1777C222.478 55.7505 223.653 55.5648 224.826 55.6334C225.685 55.6346 226.54 55.7504 227.368 55.9778C228.322 56.2524 229.246 56.6195 230.128 57.0737V55.4838C229.386 55.0038 228.568 54.6537 227.709 54.4485C226.738 54.1835 225.736 54.0467 224.73 54.0416C222.785 53.9893 220.86 54.4495 219.148 55.376C217.596 56.2527 216.344 57.5754 215.552 59.1727C214.677 61.0171 214.25 63.0426 214.307 65.0835C214.111 68.1416 215.081 71.1603 217.021 73.5324C218.004 74.5528 219.196 75.3482 220.515 75.8637C221.834 76.3793 223.25 76.6029 224.664 76.519C225.834 76.5233 227.002 76.3925 228.142 76.1292C229.146 75.9078 230.116 75.5546 231.027 75.0787V73.4888C230.009 73.9388 228.955 74.3005 227.876 74.5696C226.874 74.8103 225.848 74.9316 224.819 74.9311V74.9292Z" fill="#3B4548"/>
<path fill-rule="evenodd" clip-rule="evenodd" d="M249.19 41.7637V47.2638L243.749 41.7637H249.19Z" fill="#EF8337"/>
<path d="M8.06446 42.8292V44.356C7.65539 44.5672 7.19763 44.7257 6.69117 44.8313C6.1847 44.9465 5.64415 45.0041 5.06951 45.0041C3.43324 45.0041 2.17682 44.5288 1.30025 43.5782C0.433416 42.6276 0 41.2545 0 39.4588C0 38.3546 0.204533 37.4088 0.6136 36.6214C1.03241 35.834 1.62653 35.2291 2.39596 34.8066C3.17514 34.3745 4.09554 34.1584 5.15716 34.1584C5.62467 34.1584 6.08731 34.2112 6.54507 34.3169C7.00284 34.4225 7.39729 34.5713 7.72844 34.7634V36.2757C7.22198 36.0741 6.77882 35.93 6.39898 35.8436C6.01913 35.7572 5.64415 35.714 5.27404 35.714C4.1832 35.714 3.34071 36.0453 2.74659 36.7078C2.15247 37.3608 1.85541 38.2778 1.85541 39.4588C1.85541 40.7359 2.1476 41.7202 2.73198 42.4115C3.3261 43.0933 4.17346 43.4342 5.27404 43.4342C5.70259 43.4342 6.136 43.3861 6.57429 43.2901C7.02231 43.1941 7.51904 43.0405 8.06446 42.8292Z" fill="#7C9095"/>
<path d="M9.56616 44.8169V37.2407H10.7495L11.0271 38.4938C11.2706 38.0905 11.5774 37.7785 11.9475 37.5576C12.3176 37.3272 12.751 37.2119 13.2478 37.2119C13.4328 37.2119 13.6033 37.2263 13.7591 37.2551V38.8251H13.3354C12.7997 38.8251 12.3615 38.9739 12.0206 39.2716C11.6797 39.5597 11.4557 39.9438 11.3485 40.4239V44.8169H9.56616Z" fill="#7C9095"/>
<path d="M21.1226 44.4568C20.8012 44.62 20.4116 44.7497 19.9539 44.8457C19.4961 44.9417 19.0091 44.9897 18.4929 44.9897C17.2268 44.9897 16.2577 44.6488 15.5856 43.9671C14.9233 43.2853 14.5922 42.2915 14.5922 40.9856C14.5922 39.7373 14.9087 38.7771 15.5418 38.1049C16.1846 37.4232 17.0855 37.0823 18.2446 37.0823C19.3159 37.0823 20.1243 37.3848 20.6697 37.9897C21.2152 38.585 21.4879 39.4396 21.4879 40.5535V41.5329H16.3599C16.4281 42.2531 16.6473 42.7764 17.0174 43.1029C17.3972 43.4294 17.9475 43.5926 18.6682 43.5926C19.0968 43.5926 19.501 43.5542 19.8808 43.4774C20.2607 43.3909 20.6746 43.2565 21.1226 43.0741V44.4568ZM18.23 38.4074C17.0612 38.4074 16.433 39.0364 16.3453 40.2942H19.8516C19.8419 39.0364 19.3013 38.4074 18.23 38.4074Z" fill="#7C9095"/>
<path d="M27.8551 44.8169L27.6068 43.6934C27.3243 44.1063 26.9688 44.428 26.5403 44.6584C26.1117 44.8793 25.6393 44.9897 25.1231 44.9897C24.3342 44.9897 23.706 44.7737 23.2385 44.3416C22.7808 43.9095 22.5519 43.3237 22.5519 42.5844C22.5519 41.797 22.8441 41.1776 23.4284 40.7263C24.0128 40.275 24.8115 40.0494 25.8244 40.0494H27.2707V39.6893C27.2707 39.2092 27.1685 38.8827 26.9639 38.7099C26.7594 38.537 26.399 38.4506 25.8828 38.4506C25.1134 38.4506 24.2368 38.6283 23.2531 38.9835V37.6152C23.6427 37.452 24.0859 37.3224 24.5826 37.2263C25.0793 37.1303 25.5663 37.0823 26.0435 37.0823C28.0402 37.0823 29.0385 37.9465 29.0385 39.6749V44.8169H27.8551ZM25.4884 43.6646C25.8488 43.6646 26.1896 43.5734 26.5111 43.3909C26.8325 43.1989 27.0954 42.9348 27.3 42.5988V41.1728H26.0289C24.8504 41.1728 24.2612 41.5953 24.2612 42.4403C24.2612 42.8244 24.3683 43.1269 24.5826 43.3477C24.7969 43.559 25.0988 43.6646 25.4884 43.6646Z" fill="#7C9095"/>
<path d="M31.3307 42.3539V38.6091H30.0012V37.7305L31.3745 37.2119L31.9735 35.1091H33.1131V37.2407H34.764V38.6091H33.1131V42.3395C33.1131 42.7428 33.2056 43.0357 33.3907 43.2181C33.5757 43.3909 33.8484 43.4774 34.2088 43.4774C34.3159 43.4774 34.4279 43.4774 34.5448 43.4774C34.6714 43.4678 34.7737 43.4582 34.8516 43.4486V44.8313C34.6568 44.8601 34.4766 44.8793 34.3111 44.8889C34.1552 44.8985 33.9799 44.9033 33.7851 44.9033C32.9572 44.9033 32.3388 44.6968 31.9297 44.284C31.5304 43.8711 31.3307 43.2277 31.3307 42.3539Z" fill="#7C9095"/>
<path d="M42.3807 44.4568C42.0592 44.62 41.6697 44.7497 41.2119 44.8457C40.7541 44.9417 40.2671 44.9897 39.7509 44.9897C38.4848 44.9897 37.5157 44.6488 36.8436 43.9671C36.1813 43.2853 35.8502 42.2915 35.8502 40.9856C35.8502 39.7373 36.1667 38.7771 36.7998 38.1049C37.4426 37.4232 38.3436 37.0823 39.5026 37.0823C40.5739 37.0823 41.3823 37.3848 41.9278 37.9897C42.4732 38.585 42.7459 39.4396 42.7459 40.5535V41.5329H37.6179C37.6861 42.2531 37.9053 42.7764 38.2754 43.1029C38.6552 43.4294 39.2055 43.5926 39.9263 43.5926C40.3548 43.5926 40.759 43.5542 41.1388 43.4774C41.5187 43.3909 41.9326 43.2565 42.3807 43.0741V44.4568ZM39.488 38.4074C38.3192 38.4074 37.691 39.0364 37.6033 40.2942H41.1096C41.0999 39.0364 40.5593 38.4074 39.488 38.4074Z" fill="#7C9095"/>
<path d="M50.0155 44.8169L49.7525 43.6502C49.4506 44.0727 49.0805 44.3992 48.6422 44.6296C48.2137 44.8601 47.751 44.9753 47.2543 44.9753C46.2414 44.9753 45.4476 44.6296 44.8729 43.9383C44.2983 43.2373 44.011 42.2627 44.011 41.0144C44.011 39.7661 44.2934 38.8011 44.8583 38.1193C45.433 37.428 46.2316 37.0823 47.2543 37.0823C48.0919 37.0823 48.8127 37.3656 49.4165 37.9321V34H51.1989V44.8169H50.0155ZM45.808 41.0288C45.808 41.845 45.9589 42.4739 46.2609 42.9156C46.5725 43.3477 47.0157 43.5638 47.5903 43.5638C47.9604 43.5638 48.3062 43.4678 48.6276 43.2757C48.9587 43.0741 49.2266 42.81 49.4311 42.4835V39.3292C48.9441 38.7627 48.3305 38.4794 47.5903 38.4794C47.0157 38.4794 46.5725 38.7003 46.2609 39.142C45.9589 39.5741 45.808 40.203 45.808 41.0288Z" fill="#7C9095"/>
<path d="M56.775 44.4568V34H58.5574V37.9177C59.1515 37.3608 59.8528 37.0823 60.6612 37.0823C61.6741 37.0823 62.4484 37.4136 62.9841 38.0761C63.5295 38.7387 63.8022 39.6893 63.8022 40.928C63.8022 42.1859 63.437 43.1797 62.7065 43.9095C61.9858 44.6296 60.9875 44.9897 59.7116 44.9897C59.2246 44.9897 58.7035 44.9369 58.1483 44.8313C57.6029 44.7353 57.1451 44.6104 56.775 44.4568ZM60.2521 38.393C59.5995 38.393 59.0298 38.6811 58.5428 39.2572V43.463C58.8837 43.5686 59.2635 43.6214 59.6823 43.6214C61.2309 43.6214 62.0052 42.7188 62.0052 40.9136C62.0052 40.0974 61.8543 39.4733 61.5524 39.0412C61.2504 38.6091 60.817 38.393 60.2521 38.393Z" fill="#7C9095"/>
<path d="M67.1058 44.7449L64.4176 37.2407H66.2584L68.4353 43.6358L70.2322 37.2407H72L69.8232 44.428C69.5894 45.1866 69.3167 45.8059 69.005 46.286C68.6934 46.7661 68.3087 47.1358 67.8509 47.3951C67.3931 47.6639 66.8185 47.8656 66.127 48L65.7471 46.5597C66.4094 46.3964 66.9061 46.1852 67.2373 45.9259C67.5684 45.6667 67.8265 45.273 68.0116 44.7449H67.1058Z" fill="#7C9095"/>
<line x1="94.5" y1="24.4785" x2="94.5" y2="61.4785" stroke="#9D9D9D"/>
</svg>
