<svg width="95" height="91" viewBox="0 0 95 91" fill="none" xmlns="http://www.w3.org/2000/svg">
<g filter="url(#filter0_d_1052_1226)">
<mask id="path-1-inside-1_1052_1226" fill="white">
<path d="M16 15C16 12.7909 17.7909 11 20 11H75C77.2091 11 79 12.7909 79 15V66C79 68.2091 77.2091 70 75 70H20C17.7909 70 16 68.2091 16 66V15Z"/>
</mask>
<path d="M16 15C16 12.7909 17.7909 11 20 11H75C77.2091 11 79 12.7909 79 15V66C79 68.2091 77.2091 70 75 70H20C17.7909 70 16 68.2091 16 66V15Z" fill="white"/>
<path d="M16 15C16 7.26801 22.268 1 30 1H65C72.732 1 79 7.26801 79 15V21C79 21 77.2091 21 75 21H20C17.7909 21 16 21 16 21V15ZM79 70H16H79ZM16 70V11V70ZM79 11V70V11Z" fill="#3E968C" mask="url(#path-1-inside-1_1052_1226)"/>
</g>
<circle cx="32.2941" cy="35.2941" r="3.29412" fill="#4C576C"/>
<circle cx="47.1176" cy="35.2941" r="3.29412" fill="#4C576C"/>
<circle cx="61.9411" cy="35.2941" r="3.29412" fill="#4C576C"/>
<circle cx="32.2941" cy="46" r="3.29412" fill="#4C576C"/>
<circle cx="47.1176" cy="46" r="3.29412" fill="#4C576C"/>
<circle cx="61.9411" cy="46" r="3.29412" fill="#4C576C"/>
<circle cx="32.2941" cy="56.7059" r="3.29412" fill="#4C576C"/>
<circle cx="47.1176" cy="56.7059" r="3.29412" fill="#4C576C"/>
<circle cx="61.9411" cy="56.7059" r="3.29412" fill="#4C576C"/>
<defs>
<filter id="filter0_d_1052_1226" x="0" y="0" width="95" height="91" filterUnits="userSpaceOnUse" color-interpolation-filters="sRGB">
<feFlood flood-opacity="0" result="BackgroundImageFix"/>
<feColorMatrix in="SourceAlpha" type="matrix" values="0 0 0 0 0 0 0 0 0 0 0 0 0 0 0 0 0 0 127 0" result="hardAlpha"/>
<feOffset dy="5"/>
<feGaussianBlur stdDeviation="8"/>
<feComposite in2="hardAlpha" operator="out"/>
<feColorMatrix type="matrix" values="0 0 0 0 0 0 0 0 0 0 0 0 0 0 0 0 0 0 0.06 0"/>
<feBlend mode="normal" in2="BackgroundImageFix" result="effect1_dropShadow_1052_1226"/>
<feBlend mode="normal" in="SourceGraphic" in2="effect1_dropShadow_1052_1226" result="shape"/>
</filter>
</defs>
</svg>
