<svg width="30" height="19" viewBox="0 0 30 19" fill="none" xmlns="http://www.w3.org/2000/svg">
<path d="M3.55416 5.54327C3.11426 5.54327 2.69237 5.71802 2.38132 6.02908C2.07026 6.34014 1.89551 6.76203 1.89551 7.20193V11.9409C1.89551 12.3808 2.07026 12.8027 2.38132 13.1138C2.69237 13.4248 3.11426 13.5996 3.55416 13.5996H8.29317C8.73308 13.5996 9.15496 13.4248 9.46602 13.1138C9.77708 12.8027 9.95183 12.3808 9.95183 11.9409V10.9799L12.1967 12.3077C12.3046 12.3715 12.4274 12.4056 12.5528 12.4066C12.6781 12.4075 12.8014 12.3753 12.9103 12.3133C13.0192 12.2512 13.1097 12.1615 13.1727 12.0531C13.2358 11.9448 13.269 11.8217 13.2691 11.6964V7.44551C13.2692 7.32467 13.2384 7.20582 13.1797 7.10018C13.1211 6.99454 13.0364 6.90559 12.9339 6.84175C12.8313 6.77791 12.7141 6.74127 12.5934 6.7353C12.4727 6.72933 12.3525 6.75423 12.2441 6.80764L9.95183 7.9379V7.20193C9.95183 6.76203 9.77708 6.34014 9.46602 6.02908C9.15496 5.71802 8.73308 5.54327 8.29317 5.54327H3.55416ZM9.95183 8.99422L12.3213 7.82653V11.2808L9.95183 9.87852V8.99422ZM2.84331 7.20193C2.84331 7.0134 2.9182 6.83259 3.05151 6.69928C3.18482 6.56597 3.36563 6.49108 3.55416 6.49108H8.29317C8.4817 6.49108 8.66251 6.56597 8.79582 6.69928C8.92913 6.83259 9.00402 7.0134 9.00402 7.20193V11.9409C9.00402 12.1295 8.92913 12.3103 8.79582 12.4436C8.66251 12.5769 8.4817 12.6518 8.29317 12.6518H3.55416C3.36563 12.6518 3.18482 12.5769 3.05151 12.4436C2.9182 12.3103 2.84331 12.1295 2.84331 11.9409V7.20193Z" fill="#4C576C"/>
<path d="M18.1522 6.96498C18.1522 6.52507 18.327 6.10319 18.638 5.79213C18.9491 5.48107 19.371 5.30632 19.8109 5.30632C20.2508 5.30632 20.6727 5.48107 20.9837 5.79213C21.2948 6.10319 21.4695 6.52507 21.4695 6.96498C21.4695 7.40488 21.2948 7.82676 20.9837 8.13782C20.6727 8.44888 20.2508 8.62363 19.8109 8.62363C19.371 8.62363 18.9491 8.44888 18.638 8.13782C18.327 7.82676 18.1522 7.40488 18.1522 6.96498V6.96498ZM19.8109 4.35852C19.1196 4.35852 18.4566 4.63313 17.9678 5.12193C17.479 5.61074 17.2044 6.2737 17.2044 6.96498C17.2044 7.65625 17.479 8.31921 17.9678 8.80802C18.4566 9.29682 19.1196 9.57143 19.8109 9.57143C20.5021 9.57143 21.1651 9.29682 21.6539 8.80802C22.1427 8.31921 22.4173 7.65625 22.4173 6.96498C22.4173 6.2737 22.1427 5.61074 21.6539 5.12193C21.1651 4.63313 20.5021 4.35852 19.8109 4.35852ZM24.7868 7.67583C24.7868 7.42446 24.8867 7.18338 25.0644 7.00563C25.2422 6.82788 25.4833 6.72803 25.7346 6.72803C25.986 6.72803 26.2271 6.82788 26.4048 7.00563C26.5826 7.18338 26.6824 7.42446 26.6824 7.67583C26.6824 7.9272 26.5826 8.16828 26.4048 8.34603C26.2271 8.52377 25.986 8.62363 25.7346 8.62363C25.4833 8.62363 25.2422 8.52377 25.0644 8.34603C24.8867 8.16828 24.7868 7.9272 24.7868 7.67583ZM25.7346 5.78022C25.2319 5.78022 24.7497 5.97994 24.3942 6.33543C24.0387 6.69093 23.839 7.17308 23.839 7.67583C23.839 8.17857 24.0387 8.66073 24.3942 9.01622C24.7497 9.37172 25.2319 9.57143 25.7346 9.57143C26.2374 9.57143 26.7195 9.37172 27.075 9.01622C27.4305 8.66073 27.6302 8.17857 27.6302 7.67583C27.6302 7.17308 27.4305 6.69093 27.075 6.33543C26.7195 5.97994 26.2374 5.78022 25.7346 5.78022V5.78022ZM15.7827 11.9409C15.7827 11.5639 15.9325 11.2023 16.1991 10.9356C16.4657 10.669 16.8274 10.5192 17.2044 10.5192H22.4173C22.7944 10.5192 23.156 10.669 23.4226 10.9356C23.6892 11.2023 23.839 11.5639 23.839 11.9409V12.048C23.8381 12.0922 23.8349 12.1364 23.8296 12.1803C23.8201 12.2622 23.8025 12.3736 23.7679 12.5054C23.6769 12.8529 23.5158 13.1782 23.2945 13.4612C22.7401 14.173 21.697 14.7843 19.8109 14.7843C17.9247 14.7843 16.8822 14.173 16.3272 13.4612C16.1058 13.1782 15.9445 12.8529 15.8533 12.5054C15.8171 12.3659 15.794 12.2235 15.7841 12.0798C15.7837 12.0692 15.7834 12.0586 15.7832 12.048V12.0371L15.7827 12.0333V11.9409ZM16.7305 12.0253V12.031C16.7371 12.1107 16.7506 12.1896 16.7708 12.267C16.8134 12.4319 16.9002 12.6546 17.0746 12.8788C17.4087 13.3072 18.1427 13.8365 19.8109 13.8365C21.479 13.8365 22.2136 13.3072 22.5472 12.8793C22.6889 12.6979 22.7921 12.4896 22.8505 12.267C22.8709 12.1896 22.8845 12.1107 22.8912 12.031L22.8917 12.0253V11.9409C22.8917 11.8153 22.8418 11.6947 22.7529 11.6058C22.664 11.517 22.5435 11.467 22.4178 11.467H17.2044C17.0787 11.467 16.9582 11.517 16.8693 11.6058C16.7804 11.6947 16.7305 11.8153 16.7305 11.9409V12.0253ZM24.0651 13.5958C24.5058 13.7456 25.0541 13.8365 25.7346 13.8365C27.2516 13.8365 28.1136 13.3849 28.5842 12.8295C28.8131 12.5594 28.9302 12.2855 28.9894 12.0751C29.0213 11.9622 29.0418 11.8465 29.0505 11.7296L29.051 11.7125L29.0515 11.7021V11.6841C29.0515 11.5311 29.0214 11.3796 28.9629 11.2382C28.9044 11.0969 28.8186 10.9685 28.7104 10.8603C28.6023 10.7521 28.4738 10.6663 28.3325 10.6078C28.1911 10.5493 28.0396 10.5192 27.8866 10.5192H24.0058C24.2428 10.7841 24.4148 11.1083 24.4963 11.467H27.8866C28.0051 11.467 28.1008 11.5613 28.1037 11.6784C28.099 11.7255 28.0901 11.7722 28.0771 11.8177C28.0477 11.922 27.9871 12.0679 27.8606 12.2172C27.6208 12.5011 27.0611 12.8887 25.7346 12.8887C25.1825 12.8887 24.7636 12.8214 24.4452 12.7229C24.3608 13.0305 24.2329 13.3245 24.0651 13.5958V13.5958Z" fill="#4C576C"/>
<path d="M5.93408 2.02578C12.7569 0.620119 16.5825 0.696564 23.4066 2.02578" stroke="#4C576C" stroke-width="1.5" stroke-linecap="round"/>
<path d="M5.93408 17.1538C12.7569 18.5594 16.5825 18.483 23.4066 17.1538" stroke="#4C576C" stroke-width="1.5" stroke-linecap="round"/>
</svg>
