<svg width="20" height="19" viewBox="0 0 20 19" fill="none" xmlns="http://www.w3.org/2000/svg">
<path d="M5.36951 6.96498C5.36951 6.52507 5.54426 6.10319 5.85531 5.79213C6.16637 5.48107 6.58826 5.30632 7.02816 5.30632C7.46806 5.30632 7.88995 5.48107 8.201 5.79213C8.51206 6.10319 8.68681 6.52507 8.68681 6.96498C8.68681 7.40488 8.51206 7.82676 8.201 8.13782C7.88995 8.44888 7.46806 8.62363 7.02816 8.62363C6.58826 8.62363 6.16637 8.44888 5.85531 8.13782C5.54426 7.82676 5.36951 7.40488 5.36951 6.96498V6.96498ZM7.02816 4.35852C6.33688 4.35852 5.67392 4.63313 5.18512 5.12193C4.69631 5.61074 4.4217 6.2737 4.4217 6.96498C4.4217 7.65625 4.69631 8.31921 5.18512 8.80802C5.67392 9.29682 6.33688 9.57143 7.02816 9.57143C7.71943 9.57143 8.3824 9.29682 8.8712 8.80802C9.36001 8.31921 9.63462 7.65625 9.63462 6.96498C9.63462 6.2737 9.36001 5.61074 8.8712 5.12193C8.3824 4.63313 7.71943 4.35852 7.02816 4.35852ZM12.0041 7.67583C12.0041 7.42446 12.104 7.18338 12.2817 7.00563C12.4595 6.82788 12.7006 6.72803 12.9519 6.72803C13.2033 6.72803 13.4444 6.82788 13.6221 7.00563C13.7999 7.18338 13.8997 7.42446 13.8997 7.67583C13.8997 7.9272 13.7999 8.16828 13.6221 8.34603C13.4444 8.52377 13.2033 8.62363 12.9519 8.62363C12.7006 8.62363 12.4595 8.52377 12.2817 8.34603C12.104 8.16828 12.0041 7.9272 12.0041 7.67583ZM12.9519 5.78022C12.4492 5.78022 11.967 5.97994 11.6115 6.33543C11.256 6.69093 11.0563 7.17308 11.0563 7.67583C11.0563 8.17857 11.256 8.66073 11.6115 9.01622C11.967 9.37172 12.4492 9.57143 12.9519 9.57143C13.4547 9.57143 13.9368 9.37172 14.2923 9.01622C14.6478 8.66073 14.8475 8.17857 14.8475 7.67583C14.8475 7.17308 14.6478 6.69093 14.2923 6.33543C13.9368 5.97994 13.4547 5.78022 12.9519 5.78022V5.78022ZM3 11.9409C3 11.5639 3.14979 11.2023 3.41641 10.9356C3.68303 10.669 4.04464 10.5192 4.4217 10.5192H9.63462C10.0117 10.5192 10.3733 10.669 10.6399 10.9356C10.9065 11.2023 11.0563 11.5639 11.0563 11.9409V12.048C11.0554 12.0922 11.0522 12.1364 11.0468 12.1803C11.0374 12.2622 11.0198 12.3736 10.9852 12.5054C10.8942 12.8529 10.7331 13.1782 10.5118 13.4612C9.95734 14.173 8.91429 14.7843 7.02816 14.7843C5.14203 14.7843 4.09945 14.173 3.54451 13.4612C3.32306 13.1782 3.1618 12.8529 3.07061 12.5054C3.03441 12.3659 3.01125 12.2235 3.00142 12.0798C3.00096 12.0692 3.00065 12.0586 3.00047 12.048V12.0371L3 12.0333V11.9409ZM3.9478 12.0253V12.031C3.95437 12.1107 3.96785 12.1896 3.98808 12.267C4.03073 12.4319 4.11746 12.6546 4.29185 12.8788C4.62595 13.3072 5.36003 13.8365 7.02816 13.8365C8.69629 13.8365 9.43084 13.3072 9.76446 12.8793C9.90615 12.6979 10.0094 12.4896 10.0678 12.267C10.0881 12.1896 10.1018 12.1107 10.1085 12.031L10.109 12.0253V11.9409C10.109 11.8153 10.0591 11.6947 9.97019 11.6058C9.88131 11.517 9.76078 11.467 9.63509 11.467H4.4217C4.29602 11.467 4.17548 11.517 4.0866 11.6058C3.99773 11.6947 3.9478 11.8153 3.9478 11.9409V12.0253ZM11.2824 13.5958C11.7231 13.7456 12.2714 13.8365 12.9519 13.8365C14.4689 13.8365 15.3309 13.3849 15.8015 12.8295C16.0304 12.5594 16.1474 12.2855 16.2067 12.0751C16.2386 11.9622 16.2591 11.8465 16.2678 11.7296L16.2683 11.7125L16.2688 11.7021V11.6841C16.2688 11.5311 16.2387 11.3796 16.1802 11.2382C16.1217 11.0969 16.0359 10.9685 15.9277 10.8603C15.8195 10.7521 15.6911 10.6663 15.5497 10.6078C15.4084 10.5493 15.2569 10.5192 15.1039 10.5192H11.2231C11.4601 10.7841 11.6321 11.1083 11.7136 11.467H15.1039C15.2224 11.467 15.3181 11.5613 15.321 11.6784C15.3163 11.7255 15.3074 11.7722 15.2944 11.8177C15.265 11.922 15.2044 12.0679 15.0778 12.2172C14.838 12.5011 14.2784 12.8887 12.9519 12.8887C12.3998 12.8887 11.9809 12.8214 11.6624 12.7229C11.5781 13.0305 11.4501 13.3245 11.2824 13.5958V13.5958Z" fill="#4C576C"/>
<path d="M1 2.02578C7.82279 0.620119 11.6484 0.696564 18.4725 2.02578" stroke="#4C576C" stroke-width="1.5" stroke-linecap="round"/>
<path d="M1 17.1538C7.82279 18.5594 11.6484 18.483 18.4725 17.1538" stroke="#4C576C" stroke-width="1.5" stroke-linecap="round"/>
</svg>
