<svg width="20" height="19" viewBox="0 0 20 19" fill="none" xmlns="http://www.w3.org/2000/svg">
<path d="M5.72457 5.54327C5.28467 5.54327 4.86278 5.71802 4.55173 6.02908C4.24067 6.34014 4.06592 6.76203 4.06592 7.20193V11.9409C4.06592 12.3808 4.24067 12.8027 4.55173 13.1138C4.86278 13.4248 5.28467 13.5996 5.72457 13.5996H10.4636C10.9035 13.5996 11.3254 13.4248 11.6364 13.1138C11.9475 12.8027 12.1222 12.3808 12.1222 11.9409V10.9799L14.3671 12.3077C14.475 12.3715 14.5978 12.4056 14.7232 12.4066C14.8485 12.4075 14.9718 12.3753 15.0807 12.3133C15.1896 12.2512 15.2801 12.1615 15.3432 12.0531C15.4062 11.9448 15.4394 11.8217 15.4395 11.6964V7.44551C15.4396 7.32467 15.4088 7.20582 15.3502 7.10018C15.2915 6.99454 15.2069 6.90559 15.1043 6.84175C15.0017 6.77791 14.8845 6.74127 14.7638 6.7353C14.6431 6.72933 14.5229 6.75423 14.4145 6.80764L12.1222 7.9379V7.20193C12.1222 6.76203 11.9475 6.34014 11.6364 6.02908C11.3254 5.71802 10.9035 5.54327 10.4636 5.54327H5.72457ZM12.1222 8.99422L14.4917 7.82653V11.2808L12.1222 9.87852V8.99422ZM5.01372 7.20193C5.01372 7.0134 5.08861 6.83259 5.22192 6.69928C5.35523 6.56597 5.53604 6.49108 5.72457 6.49108H10.4636C10.6521 6.49108 10.8329 6.56597 10.9662 6.69928C11.0995 6.83259 11.1744 7.0134 11.1744 7.20193V11.9409C11.1744 12.1295 11.0995 12.3103 10.9662 12.4436C10.8329 12.5769 10.6521 12.6518 10.4636 12.6518H5.72457C5.53604 12.6518 5.35523 12.5769 5.22192 12.4436C5.08861 12.3103 5.01372 12.1295 5.01372 11.9409V7.20193Z" fill="#4C576C"/>
<path d="M1 2.02578C7.82279 0.620119 11.6484 0.696564 18.4725 2.02578" stroke="#4C576C" stroke-width="1.5" stroke-linecap="round"/>
<path d="M1 17.1538C7.82279 18.5594 11.6484 18.483 18.4725 17.1538" stroke="#4C576C" stroke-width="1.5" stroke-linecap="round"/>
</svg>
